<svg xmlns="http://www.w3.org/2000/svg" viewBox="0 0 512 512">
  <rect width="512" height="512" rx="96" fill="#09070d"/>

  <!-- Left person -->
  <circle cx="132" cy="176" r="42" fill="#8b3dff"/>
  <path d="M74 294c4-52 31-78 58-78s54 26 58 78v12H74z" fill="#8b3dff"/>

  <!-- Right person -->
  <circle cx="380" cy="176" r="42" fill="#8b3dff"/>
  <path d="M322 294c4-52 31-78 58-78s54 26 58 78v12H322z" fill="#8b3dff"/>

  <!-- Center person -->
  <circle cx="256" cy="136" r="52" fill="#9b55ff"/>
  <path d="M181 286c5-68 35-102 75-102s70 34 75 102v14H181z" fill="#9b55ff"/>

  <!-- Soccer ball -->
  <circle cx="256" cy="337" r="103" fill="#9b55ff" stroke="#09070d" stroke-width="12"/>
  <path d="M256 286l31 23-12 37h-38l-12-37z" fill="#09070d"/>
  <path d="M256 286l-30-22-34 25 12 36 38 21" fill="#09070d"/>
  <path d="M287 309l30-22 34 25-12 36-38 21" fill="#09070d"/>
  <path d="M237 346l-25 31 14 37h39l10-37-26-31z" fill="#09070d"/>
  <path d="M299 346l25 31-14 37h-39l-10-37 26-31z" fill="#09070d"/>

  <!-- Ball outline accent -->
  <circle cx="256" cy="337" r="103" fill="none" stroke="#9b55ff" stroke-width="5"/>
</svg>
